<svg width="128" height="70" viewBox="0 0 128 70" fill="none" xmlns="http://www.w3.org/2000/svg">
<path d="M47.2715 1.69716C45.951 2.65537 41.3894 5.88936 37.158 8.88378C32.9265 11.9082 29.2652 14.5433 29.0852 14.7828C28.7851 15.1421 28.8151 15.3518 29.2952 15.771C30.5557 16.9687 48.652 31.7013 49.0421 31.8511C49.5223 32.0307 49.7323 27.6289 49.9724 12.3573C50.0624 6.57807 50.2125 1.42766 50.3025 0.888659C50.5126 -0.458834 50.0925 -0.339057 47.2715 1.69716Z" fill="black"/>
<path d="M125.299 23.8262C123.528 24.6048 123.378 24.6347 117.496 24.6347C114.195 24.6347 103.391 24.4551 93.4876 24.2155C73.0505 23.7364 74.1609 23.6466 69.7793 26.1319C68.4589 26.8806 64.5575 29.5157 61.0763 32.001C51.9832 38.4989 48.9521 40.1159 45.741 40.1459C43.6103 40.1758 41.8397 39.4272 39.4989 37.5108C35.1173 33.9774 23.3833 25.1737 22.2429 24.5748C19.8721 23.3471 14.4102 23.7663 8.85823 25.563C7.53778 26.0122 6.33736 26.4613 6.21732 26.5811C6.06727 26.7009 6.99759 26.8806 8.22802 27.0003C12.8196 27.4196 17.0511 28.8868 20.6223 31.3123C23.0532 32.9592 26.8045 36.9718 29.2953 40.5052C30.4657 42.1521 32.0263 44.368 32.7765 45.446C33.5268 46.524 36.7079 50.1772 39.799 53.5609C42.92 56.9446 47.5717 62.0352 50.1225 64.8499C52.6734 67.6946 54.9242 70.0003 55.1343 70.0003C55.4944 70.0003 57.5051 67.3053 59.2457 64.3708C59.8759 63.3228 62.1267 59.0108 64.2574 54.7886C68.759 45.7754 69.8994 43.9189 72.7504 41.1041C76.9518 36.9718 79.9529 35.9836 89.5562 35.5644C104.771 34.8757 113.835 32.2106 124.728 25.2037C126.199 24.2754 127.519 23.3771 127.699 23.2274C128.24 22.7482 127.069 23.0177 125.299 23.8262Z" fill="#9CBB53"/>
<path d="M7.98799 51.3153C3.84655 54.3397 0.395355 56.825 0.245303 56.825C-0.204853 56.825 0.0052194 57.394 0.545407 57.5437C0.8155 57.6036 4.77687 58.7115 9.30845 59.9692C13.84 61.2268 20.5924 63.1433 24.3136 64.1913C28.0049 65.2693 31.216 66.0778 31.4561 66.0479C31.6962 65.988 30.4658 64.1913 28.305 61.4364C26.3544 58.981 23.4133 55.208 21.7628 53.082C17.6513 47.8118 15.9407 45.7456 15.6707 45.7756C15.5506 45.7756 12.0994 48.2909 7.98799 51.3153Z" fill="black"/>
</svg>
